<svg xmlns="http://www.w3.org/2000/svg" width="1024" height="1024" viewBox="0 0 1024 1024">
  <g transform="translate(132,56) scale(3.8)">
    <path d="M36,28 L138,28 L172,62 L172,208 Q172,218 162,218 L38,218 Q28,218 28,208 L28,38 Q28,28 38,28 Z" fill="#14110d" stroke="#3a342b" stroke-width="1.5"/>
    <path d="M138,28 L138,62 L172,62 Z" fill="#2c271f"/>
    <polygon points="95,56 105,56 142,182 58,182" fill="#7bc5e8" opacity="0.30"/>
    <rect x="92" y="48" width="16" height="9" rx="2" fill="#4a443a"/>
    <circle cx="100" cy="55" r="4.5" fill="#eaf7ff"/>
    <ellipse cx="100" cy="190" rx="50" ry="14" fill="#7bc5e8" opacity="0.38"/>
    <ellipse cx="100" cy="190" rx="30" ry="8" fill="#cfeeff" opacity="0.5"/>
    <g opacity="0.25">
      <circle cx="60" cy="190" r="9" fill="#38d6ee"/><circle cx="80" cy="190" r="9" fill="#e879f9"/><circle cx="100" cy="190" r="9" fill="#fbbf24"/><circle cx="120" cy="190" r="9" fill="#a8e878"/><circle cx="140" cy="190" r="9" fill="#38d6ee"/>
    </g>
    <g>
      <circle cx="60" cy="190" r="5.5" fill="#38d6ee"/><circle cx="80" cy="190" r="5.5" fill="#e879f9"/><circle cx="100" cy="190" r="5.5" fill="#fbbf24"/><circle cx="120" cy="190" r="5.5" fill="#a8e878"/><circle cx="140" cy="190" r="5.5" fill="#38d6ee"/>
    </g>
  </g>
</svg>
