<svg xmlns="http://www.w3.org/2000/svg" width="1024" height="1024" viewBox="0 0 200 200">
  <rect width="200" height="200" rx="46" fill="#14110d"/>
  <g opacity="0.85">
    <polygon points="47,28 53,28 64,176 36,176" fill="#38d6ee" opacity="0.32"/>
    <polygon points="79,28 85,28 96,176 68,176" fill="#e879f9" opacity="0.32"/>
    <polygon points="111,28 117,28 128,176 100,176" fill="#fbbf24" opacity="0.32"/>
    <polygon points="143,28 149,28 160,176 132,176" fill="#a8e878" opacity="0.32"/>
  </g>
  <g>
    <circle cx="50" cy="28" r="5" fill="#38d6ee"/>
    <circle cx="82" cy="28" r="5" fill="#e879f9"/>
    <circle cx="114" cy="28" r="5" fill="#fbbf24"/>
    <circle cx="146" cy="28" r="5" fill="#a8e878"/>
  </g>
  <g fill="#fde9b0">
    <circle cx="50" cy="172" r="2.5"/>
    <circle cx="82" cy="172" r="2.5"/>
    <circle cx="114" cy="172" r="2.5"/>
    <circle cx="146" cy="172" r="2.5"/>
  </g>
</svg>
